<svg width="800" height="600" viewBox="0 0 200 150" xmlns="http://www.w3.org/2000/svg">
  <defs>
    <pattern id="motion-grid" width="20" height="20" patternUnits="userSpaceOnUse">
      <path d="M 20 0 L 0 0 0 20" fill="none" stroke="#1e293b" stroke-width="0.5" />
    </pattern>
    <radialGradient id="motion-indigo" cx="24%" cy="18%" r="56%">
      <stop offset="0%" stop-color="#4f46e5" stop-opacity="0.22" />
      <stop offset="100%" stop-color="#4f46e5" stop-opacity="0" />
    </radialGradient>
    <radialGradient id="motion-cyan" cx="76%" cy="22%" r="42%">
      <stop offset="0%" stop-color="#0ea5e9" stop-opacity="0.2" />
      <stop offset="100%" stop-color="#0ea5e9" stop-opacity="0" />
    </radialGradient>
    <linearGradient id="motion-trace" x1="0%" y1="0%" x2="100%" y2="0%">
      <stop offset="0%" stop-color="#38bdf8" stop-opacity="0.18" />
      <stop offset="50%" stop-color="#818cf8" stop-opacity="0.92" />
      <stop offset="100%" stop-color="#38bdf8" stop-opacity="0.18" />
    </linearGradient>
  </defs>

  <rect width="200" height="150" fill="#020617" />
  <rect width="200" height="150" fill="url(#motion-grid)" />
  <rect width="200" height="150" fill="url(#motion-indigo)" />
  <rect width="200" height="150" fill="url(#motion-cyan)" />

  <text x="18" y="24" fill="#94a3b8" font-family="ui-monospace, SFMono-Regular, Menlo, monospace" font-size="5.5" font-weight="700" letter-spacing="0.22em">
    MOTION_LAB
  </text>
  <text x="18" y="34" fill="#475569" font-family="ui-monospace, SFMono-Regular, Menlo, monospace" font-size="4.2" letter-spacing="0.16em">
    IDLE_AND_WALK_STUDY
  </text>

  <path d="M 22 117 C 42 108, 62 124, 82 114 S 123 121, 145 108 S 171 114, 184 103" fill="none" stroke="url(#motion-trace)" stroke-width="2.1" stroke-linecap="round" />

  <g transform="translate(61 24)">
    <line x1="29" y1="5" x2="29" y2="99" stroke="#334155" stroke-width="0.9" stroke-dasharray="3 4" />
    <line x1="-8" y1="99" x2="72" y2="99" stroke="#475569" stroke-width="1" stroke-dasharray="5 4" />

    <g opacity="0.22">
      <path d="M 19 45 Q 11 58 5 70" fill="none" stroke="#64748b" stroke-width="2.3" stroke-linecap="round" />
      <path d="M 40 44 Q 50 55 58 68" fill="none" stroke="#64748b" stroke-width="2.3" stroke-linecap="round" />
      <path d="M 24 79 Q 24 88 24 99" fill="none" stroke="#64748b" stroke-width="2.8" stroke-linecap="round" />
      <path d="M 36 79 Q 45 87 54 97" fill="none" stroke="#64748b" stroke-width="2.8" stroke-linecap="round" />
      <rect x="19" y="35" width="23" height="44" rx="12" fill="#020617" stroke="#64748b" stroke-width="2.1" />
      <g transform="translate(31 18) rotate(-2)">
        <circle cx="0" cy="0" r="15.5" fill="#020617" stroke="#64748b" stroke-width="2.1" />
      </g>
    </g>

    <g opacity="0.38">
      <path d="M 17 46 Q 8 59 -3 74" fill="none" stroke="#94a3b8" stroke-width="2.2" stroke-linecap="round" />
      <path d="M 41 45 Q 50 59 60 73" fill="none" stroke="#94a3b8" stroke-width="2.2" stroke-linecap="round" />
      <path d="M 23 79 Q 21 89 19 99" fill="none" stroke="#94a3b8" stroke-width="2.7" stroke-linecap="round" />
      <path d="M 37 79 Q 44 87 50 96" fill="none" stroke="#94a3b8" stroke-width="2.7" stroke-linecap="round" />
      <rect x="19" y="35" width="23" height="44" rx="12" fill="#020617" stroke="#94a3b8" stroke-width="2" />
      <g transform="translate(31 18) rotate(4)">
        <circle cx="0" cy="0" r="15.5" fill="#020617" stroke="#94a3b8" stroke-width="2" />
      </g>
    </g>

    <path d="M 19 45 Q 9 59 -2 74" fill="none" stroke="#94a3b8" stroke-width="2.5" stroke-linecap="round" opacity="0.78" />
    <path d="M 41 44 Q 52 55 63 68" fill="none" stroke="#cbd5e1" stroke-width="2.5" stroke-linecap="round" />
    <path d="M 24 79 Q 24 89 24 99" fill="none" stroke="#94a3b8" stroke-width="3" stroke-linecap="round" opacity="0.78" />
    <path d="M 36 79 Q 46 86 57 95" fill="none" stroke="#cbd5e1" stroke-width="3" stroke-linecap="round" />

    <rect x="19" y="35" width="23" height="44" rx="12" fill="#020617" stroke="#cbd5e1" stroke-width="2.5" />
    <g transform="translate(31 18) rotate(8)">
      <circle cx="0" cy="0" r="16" fill="#020617" stroke="#cbd5e1" stroke-width="2.5" />
      <circle cx="7.5" cy="-2.5" r="1.5" fill="#cbd5e1" />
    </g>

    <line x1="-7" y1="18" x2="11" y2="18" stroke="#475569" stroke-width="0.7" stroke-dasharray="2 2" />
    <text x="-7" y="14.5" fill="#475569" font-family="ui-monospace, SFMono-Regular, Menlo, monospace" font-size="3.8" letter-spacing="0.14em">
      LOOP_A
    </text>

    <line x1="47" y1="63" x2="74" y2="63" stroke="#475569" stroke-width="0.7" stroke-dasharray="2 2" />
    <text x="51" y="59.5" fill="#475569" font-family="ui-monospace, SFMono-Regular, Menlo, monospace" font-size="3.8" letter-spacing="0.14em">
      SWING_ARC
    </text>

    <line x1="48" y1="99" x2="74" y2="99" stroke="#475569" stroke-width="0.7" stroke-dasharray="2 2" />
    <text x="52" y="106.5" fill="#475569" font-family="ui-monospace, SFMono-Regular, Menlo, monospace" font-size="3.8" letter-spacing="0.14em">
      CONTACT
    </text>

    <text x="50" y="88" fill="#38bdf8" font-family="ui-monospace, SFMono-Regular, Menlo, monospace" font-size="4.2" font-weight="700" letter-spacing="0.16em">
      TEMPO 1.00
    </text>
  </g>

  <text x="100" y="138" fill="#475569" font-family="ui-monospace, SFMono-Regular, Menlo, monospace" font-size="6" text-anchor="middle" letter-spacing="0.18em" font-weight="700">
    System.Motion.Module_v2
  </text>
</svg>
