<svg width="800" height="600" viewBox="0 0 200 150" xmlns="http://www.w3.org/2000/svg">
  <defs>
    <linearGradient id="panel" x1="0%" y1="0%" x2="100%" y2="100%">
      <stop offset="0%" stop-color="#0f172a" />
      <stop offset="100%" stop-color="#020617" />
    </linearGradient>
    <pattern id="grid" width="16" height="16" patternUnits="userSpaceOnUse">
      <path d="M 16 0 L 0 0 0 16" fill="none" stroke="#334155" stroke-width="0.45" />
    </pattern>
    <linearGradient id="loop" x1="0%" y1="0%" x2="100%" y2="0%">
      <stop offset="0%" stop-color="#38bdf8" />
      <stop offset="100%" stop-color="#818cf8" />
    </linearGradient>
  </defs>

  <rect width="200" height="150" fill="url(#panel)" />
  <rect width="200" height="150" fill="url(#grid)" opacity="0.68" />
  <circle cx="42" cy="26" r="38" fill="#4f46e5" opacity="0.14" />
  <circle cx="164" cy="32" r="26" fill="#0ea5e9" opacity="0.12" />

  <path d="M 28 120 C 56 100, 82 132, 110 112 S 160 122, 180 102" fill="none" stroke="url(#loop)" stroke-width="2" stroke-linecap="round" opacity="0.85" />

  <g transform="translate(72 24)">
    <line x1="28" y1="10" x2="28" y2="98" stroke="#334155" stroke-width="0.8" stroke-dasharray="2 3" />
    <line x1="-4" y1="98" x2="60" y2="98" stroke="#64748b" stroke-width="1" stroke-dasharray="4 4" />

    <g opacity="0.22">
      <path d="M 15 46 Q 9 61 1 74" fill="none" stroke="#94a3b8" stroke-width="2.5" stroke-linecap="round" />
      <path d="M 40 46 Q 47 59 55 72" fill="none" stroke="#94a3b8" stroke-width="2.5" stroke-linecap="round" />
      <path d="M 20 78 Q 17 88 12 98" fill="none" stroke="#94a3b8" stroke-width="3" stroke-linecap="round" />
      <path d="M 35 78 Q 39 87 44 98" fill="none" stroke="#94a3b8" stroke-width="3" stroke-linecap="round" />
      <rect x="13" y="36" width="30" height="43" rx="15" fill="#ffffff" stroke="#94a3b8" stroke-width="2.3" />
      <g transform="translate(29 20) rotate(-3)">
        <ellipse cx="0" cy="0" rx="17" ry="18" fill="#ffffff" stroke="#94a3b8" stroke-width="2.3" />
      </g>
    </g>

    <path d="M 16 44 Q 8 57 -2 72" fill="none" stroke="#94a3b8" stroke-width="2.5" stroke-linecap="round" opacity="0.72" />
    <path d="M 42 44 Q 49 60 58 75" fill="none" stroke="#e2e8f0" stroke-width="2.5" stroke-linecap="round" />
    <path d="M 20 78 Q 17 89 12 98" fill="none" stroke="#94a3b8" stroke-width="3" stroke-linecap="round" opacity="0.72" />
    <path d="M 35 78 Q 40 88 46 98" fill="none" stroke="#e2e8f0" stroke-width="3" stroke-linecap="round" />

    <rect x="13" y="34" width="31" height="45" rx="16" fill="#ffffff" stroke="#e2e8f0" stroke-width="2.5" />
    <g transform="translate(30 18) rotate(7)">
      <ellipse cx="0" cy="0" rx="18" ry="19" fill="#ffffff" stroke="#e2e8f0" stroke-width="2.5" />
      <ellipse cx="4" cy="1" rx="8" ry="10" fill="#c7d2fe" opacity="0.85" />
      <circle cx="6" cy="-3" r="1.8" fill="#0f172a" />
    </g>

    <text x="-2" y="12" fill="#64748b" font-family="monospace" font-size="4.5" letter-spacing="1">MOTION LAB</text>
    <text x="-2" y="106" fill="#64748b" font-family="monospace" font-size="4.5" letter-spacing="1">IDLE + WALK</text>
  </g>

  <text x="100" y="138" fill="#64748b" font-family="monospace" font-size="6" text-anchor="middle" letter-spacing="1.4">
    STICKMAN_MOTION_STUDIES
  </text>
</svg>
