<svg width="800" height="600" viewBox="0 0 200 150" xmlns="http://www.w3.org/2000/svg">
  <defs>
    <pattern id="pose-grid" width="20" height="20" patternUnits="userSpaceOnUse">
      <path d="M 20 0 L 0 0 0 20" fill="none" stroke="#1e293b" stroke-width="0.5" />
    </pattern>
    <radialGradient id="pose-glow" cx="28%" cy="18%" r="56%">
      <stop offset="0%" stop-color="#4f46e5" stop-opacity="0.24" />
      <stop offset="100%" stop-color="#4f46e5" stop-opacity="0" />
    </radialGradient>
  </defs>

  <rect width="200" height="150" fill="#020617" />
  <rect width="200" height="150" fill="url(#pose-grid)" />
  <rect width="200" height="150" fill="url(#pose-glow)" />

  <text x="18" y="24" fill="#94a3b8" font-family="ui-monospace, SFMono-Regular, Menlo, monospace" font-size="5.5" font-weight="700" letter-spacing="0.22em">
    POSE_LAB
  </text>
  <text x="18" y="34" fill="#475569" font-family="ui-monospace, SFMono-Regular, Menlo, monospace" font-size="4.2" letter-spacing="0.16em">
    STANDING_BASELINE
  </text>

  <g transform="translate(66 25)">
    <line x1="29" y1="2" x2="29" y2="96" stroke="#334155" stroke-width="0.9" stroke-dasharray="3 4" />
    <line x1="-10" y1="96" x2="68" y2="96" stroke="#475569" stroke-width="1" stroke-dasharray="5 4" />

    <g opacity="0.34">
      <path d="M 20 44 Q 12 58 4 70" fill="none" stroke="#64748b" stroke-width="2.3" stroke-linecap="round" />
      <path d="M 38 44 Q 46 58 56 70" fill="none" stroke="#64748b" stroke-width="2.3" stroke-linecap="round" />
      <path d="M 24 77 Q 21 87 16 96" fill="none" stroke="#64748b" stroke-width="2.8" stroke-linecap="round" />
      <path d="M 36 77 Q 40 87 45 96" fill="none" stroke="#64748b" stroke-width="2.8" stroke-linecap="round" />
      <rect x="18" y="34" width="24" height="44" rx="12" fill="#020617" stroke="#64748b" stroke-width="2.2" />
      <g transform="translate(30 17) rotate(-4)">
        <circle cx="0" cy="0" r="15.5" fill="#020617" stroke="#64748b" stroke-width="2.2" />
      </g>
    </g>

    <path d="M 18 44 Q 9 58 -2 73" fill="none" stroke="#94a3b8" stroke-width="2.5" stroke-linecap="round" opacity="0.75" />
    <path d="M 40 44 Q 50 56 60 70" fill="none" stroke="#cbd5e1" stroke-width="2.5" stroke-linecap="round" />
    <path d="M 24 78 Q 22 87 20 96" fill="none" stroke="#94a3b8" stroke-width="3" stroke-linecap="round" opacity="0.75" />
    <path d="M 36 78 Q 41 87 48 96" fill="none" stroke="#cbd5e1" stroke-width="3" stroke-linecap="round" />

    <rect x="18" y="34" width="24" height="44" rx="12" fill="#020617" stroke="#cbd5e1" stroke-width="2.5" />
    <g transform="translate(30 17) rotate(6)">
      <circle cx="0" cy="0" r="16" fill="#020617" stroke="#cbd5e1" stroke-width="2.5" />
      <circle cx="7.5" cy="-2.5" r="1.5" fill="#cbd5e1" />
    </g>

    <line x1="-8" y1="17" x2="13" y2="17" stroke="#475569" stroke-width="0.7" stroke-dasharray="2 2" />
    <text x="-8" y="13.5" fill="#475569" font-family="ui-monospace, SFMono-Regular, Menlo, monospace" font-size="3.9" letter-spacing="0.14em">
      HEAD_GRP
    </text>

    <line x1="47" y1="56" x2="72" y2="56" stroke="#475569" stroke-width="0.7" stroke-dasharray="2 2" />
    <text x="52" y="52.5" fill="#475569" font-family="ui-monospace, SFMono-Regular, Menlo, monospace" font-size="3.9" letter-spacing="0.14em">
      BODY_SLOT
    </text>

    <line x1="-12" y1="96" x2="11" y2="96" stroke="#475569" stroke-width="0.7" stroke-dasharray="2 2" />
    <text x="-12" y="103.5" fill="#475569" font-family="ui-monospace, SFMono-Regular, Menlo, monospace" font-size="3.9" letter-spacing="0.14em">
      GROUND_REF
    </text>

    <text x="51" y="88" fill="#818cf8" font-family="ui-monospace, SFMono-Regular, Menlo, monospace" font-size="4.2" font-weight="700" letter-spacing="0.16em">
      YAW +40
    </text>
  </g>

  <text x="100" y="138" fill="#475569" font-family="ui-monospace, SFMono-Regular, Menlo, monospace" font-size="6" text-anchor="middle" letter-spacing="0.18em" font-weight="700">
    System.Pose.Module_v2
  </text>
</svg>
