<svg width="800" height="600" viewBox="0 0 200 150" xmlns="http://www.w3.org/2000/svg">
  <defs>
    <linearGradient id="panel" x1="0%" y1="0%" x2="100%" y2="100%">
      <stop offset="0%" stop-color="#0f172a" />
      <stop offset="100%" stop-color="#111827" />
    </linearGradient>
    <pattern id="grid" width="16" height="16" patternUnits="userSpaceOnUse">
      <path d="M 16 0 L 0 0 0 16" fill="none" stroke="#334155" stroke-width="0.45" />
    </pattern>
  </defs>

  <rect width="200" height="150" fill="url(#panel)" />
  <rect width="200" height="150" fill="url(#grid)" opacity="0.65" />
  <circle cx="40" cy="24" r="36" fill="#4f46e5" opacity="0.12" />

  <g transform="translate(72 26)">
    <line x1="28" y1="6" x2="28" y2="94" stroke="#334155" stroke-width="0.8" stroke-dasharray="2 3" />
    <line x1="-6" y1="94" x2="62" y2="94" stroke="#64748b" stroke-width="1" stroke-dasharray="4 4" />

    <path d="M 14 44 Q 6 58 -4 73" fill="none" stroke="#94a3b8" stroke-width="2.5" stroke-linecap="round" opacity="0.6" />
    <path d="M 42 44 Q 50 58 60 73" fill="none" stroke="#e2e8f0" stroke-width="2.5" stroke-linecap="round" />

    <path d="M 20 78 Q 16 87 10 94" fill="none" stroke="#94a3b8" stroke-width="3" stroke-linecap="round" opacity="0.6" />
    <path d="M 36 78 Q 40 87 46 94" fill="none" stroke="#e2e8f0" stroke-width="3" stroke-linecap="round" />

    <rect x="12" y="34" width="32" height="46" rx="16" fill="#ffffff" stroke="#e2e8f0" stroke-width="2.5" />
    <g transform="translate(30 18) rotate(6)">
      <circle cx="0" cy="0" r="18" fill="#ffffff" stroke="#e2e8f0" stroke-width="2.5" />
      <circle cx="7" cy="-3" r="1.8" fill="#0f172a" />
    </g>

    <text x="-2" y="12" fill="#64748b" font-family="monospace" font-size="4.5" letter-spacing="1">POSE LAB</text>
    <text x="-2" y="101" fill="#64748b" font-family="monospace" font-size="4.5" letter-spacing="1">BASELINE</text>
  </g>

  <text x="100" y="138" fill="#64748b" font-family="monospace" font-size="6" text-anchor="middle" letter-spacing="1.5">
    STANDING_STICKMAN_SANDBOX
  </text>
</svg>
